<svg width="529" height="161" viewBox="0 0 529 161" fill="none" xmlns="http://www.w3.org/2000/svg">
<path d="M161.218 98C156.018 98 151.218 97.1 146.818 95.3C142.418 93.4333 138.585 90.8333 135.318 87.5C132.118 84.1667 129.618 80.2333 127.818 75.7C126.018 71.1 125.118 66.1 125.118 60.7C125.118 55.3 125.985 50.3667 127.718 45.9C129.518 41.4333 132.018 37.5667 135.218 34.3C138.485 30.9667 142.318 28.4333 146.718 26.7C151.118 24.9 155.951 24 161.218 24C167.151 24 172.485 25.1667 177.218 27.5C182.018 29.7667 185.918 33 188.918 37.2C191.985 41.3333 193.852 46.2 194.518 51.8H179.518C178.652 46.6667 176.552 42.8 173.218 40.2C169.885 37.5333 165.918 36.2 161.318 36.2C157.252 36.2 153.651 37.1667 150.518 39.1C147.451 41.0333 145.051 43.8333 143.318 47.5C141.585 51.1 140.718 55.4667 140.718 60.6C140.718 65.8 141.585 70.3 143.318 74.1C145.118 77.8333 147.585 80.7333 150.718 82.8C153.851 84.8 157.451 85.8 161.518 85.8C165.851 85.8 169.685 84.5 173.018 81.9C176.351 79.3 178.518 75.4333 179.518 70.3H194.718C193.852 75.9 191.885 80.8 188.818 85C185.752 89.1333 181.852 92.3333 177.118 94.6C172.385 96.8667 167.085 98 161.218 98ZM230.167 97C229.767 95.5333 229.467 93.9667 229.267 92.3C229.134 90.6333 229.067 88.7 229.067 86.5H228.667V62.4C228.667 60.3333 227.967 58.7333 226.567 57.6C225.234 56.4 223.234 55.8 220.567 55.8C218.034 55.8 216.001 56.2333 214.467 57.1C213.001 57.9667 212.034 59.2333 211.567 60.9H197.267C197.934 56.3 200.301 52.5 204.367 49.5C208.434 46.5 214.001 45 221.067 45C228.401 45 234.001 46.6333 237.867 49.9C241.734 53.1667 243.667 57.8667 243.667 64V86.5C243.667 88.1667 243.767 89.8667 243.967 91.6C244.234 93.2667 244.634 95.0667 245.167 97H230.167ZM212.367 98C207.301 98 203.267 96.7333 200.267 94.2C197.267 91.6 195.767 88.1667 195.767 83.9C195.767 79.1667 197.534 75.3667 201.067 72.5C204.667 69.5667 209.667 67.6667 216.067 66.8L230.967 64.7V73.4L218.567 75.3C215.901 75.7 213.934 76.4333 212.667 77.5C211.401 78.5667 210.767 80.0333 210.767 81.9C210.767 83.5667 211.367 84.8333 212.567 85.7C213.767 86.5667 215.367 87 217.367 87C220.501 87 223.167 86.1667 225.367 84.5C227.567 82.7667 228.667 80.7667 228.667 78.5L230.067 86.5C228.601 90.3 226.367 93.1667 223.367 95.1C220.367 97.0333 216.701 98 212.367 98ZM253.069 97V42.6C253.069 36.4667 254.736 31.8333 258.069 28.7C261.402 25.5667 266.336 24 272.869 24C274.269 24 275.469 24.0667 276.469 24.2C277.536 24.3333 278.569 24.5667 279.569 24.9V36.4C279.102 36.2 278.536 36.0667 277.869 36C277.202 35.8667 276.402 35.8 275.469 35.8C272.936 35.8 271.069 36.4 269.869 37.6C268.669 38.8 268.069 40.5333 268.069 42.8V97H253.069ZM244.569 57.4V46H278.469V57.4H244.569ZM305.618 98C299.951 98 295.018 96.9 290.818 94.7C286.618 92.4333 283.351 89.3 281.018 85.3C278.751 81.3 277.618 76.7 277.618 71.5C277.618 66.2333 278.751 61.6333 281.018 57.7C283.351 53.7 286.585 50.6 290.718 48.4C294.851 46.1333 299.651 45 305.118 45C310.385 45 314.951 46.0667 318.818 48.2C322.685 50.3333 325.685 53.3 327.818 57.1C329.951 60.9 331.018 65.3667 331.018 70.5C331.018 71.5667 330.985 72.5667 330.918 73.5C330.852 74.3667 330.752 75.2 330.618 76H286.418V66.1H318.518L315.918 67.9C315.918 63.7667 314.918 60.7333 312.918 58.8C310.985 56.8 308.318 55.8 304.918 55.8C300.985 55.8 297.918 57.1333 295.718 59.8C293.585 62.4667 292.518 66.4667 292.518 71.8C292.518 77 293.585 80.8667 295.718 83.4C297.918 85.9333 301.185 87.2 305.518 87.2C307.918 87.2 309.985 86.8 311.718 86C313.452 85.2 314.751 83.9 315.618 82.1H329.718C328.051 87.0333 325.185 90.9333 321.118 93.8C317.118 96.6 311.951 98 305.618 98ZM357.128 98C349.662 98 343.728 96.5 339.328 93.5C334.928 90.5 332.528 86.3667 332.128 81.1H345.528C345.862 83.3667 346.995 85.1 348.928 86.3C350.928 87.4333 353.662 88 357.128 88C360.262 88 362.528 87.5667 363.928 86.7C365.395 85.7667 366.128 84.4667 366.128 82.8C366.128 81.5333 365.695 80.5667 364.828 79.9C364.028 79.1667 362.528 78.5667 360.328 78.1L352.128 76.4C346.062 75.1333 341.595 73.2333 338.728 70.7C335.862 68.1 334.428 64.7667 334.428 60.7C334.428 55.7667 336.328 51.9333 340.128 49.2C343.928 46.4 349.228 45 356.028 45C362.762 45 368.128 46.3667 372.128 49.1C376.128 51.7667 378.328 55.5 378.728 60.3H365.328C365.062 58.5667 364.128 57.2667 362.528 56.4C360.928 55.4667 358.662 55 355.728 55C353.062 55 351.062 55.4 349.728 56.2C348.462 56.9333 347.828 58 347.828 59.4C347.828 60.6 348.362 61.5667 349.428 62.3C350.495 62.9667 352.262 63.5667 354.728 64.1L363.928 66C369.062 67.0667 372.928 69.0667 375.528 72C378.195 74.8667 379.528 78.2667 379.528 82.2C379.528 87.2 377.562 91.1 373.628 93.9C369.762 96.6333 364.262 98 357.128 98ZM383.919 97V46H398.919V97H383.919ZM383.419 39.2V23H399.419V39.2H383.419ZM431.291 98.1C424.757 98.1 419.891 96.5333 416.691 93.4C413.557 90.2 411.991 85.3667 411.991 78.9V34.6L426.991 29V79.4C426.991 81.6667 427.624 83.3667 428.891 84.5C430.157 85.6333 432.124 86.2 434.791 86.2C435.791 86.2 436.724 86.1 437.591 85.9C438.457 85.7 439.324 85.4667 440.191 85.2V96.6C439.324 97.0667 438.091 97.4333 436.491 97.7C434.957 97.9667 433.224 98.1 431.291 98.1ZM402.491 57.4V46H440.191V57.4H402.491ZM468.623 98C463.023 98 458.09 96.9 453.823 94.7C449.623 92.4333 446.323 89.3 443.923 85.3C441.59 81.2333 440.423 76.5667 440.423 71.3C440.423 66.0333 441.59 61.4333 443.923 57.5C446.323 53.5667 449.623 50.5 453.823 48.3C458.09 46.1 463.023 45 468.623 45C474.29 45 479.223 46.1 483.423 48.3C487.69 50.5 490.99 53.5667 493.323 57.5C495.656 61.4333 496.823 66.0333 496.823 71.3C496.823 76.5667 495.623 81.2333 493.223 85.3C490.89 89.3 487.59 92.4333 483.323 94.7C479.123 96.9 474.223 98 468.623 98ZM468.623 86.2C470.956 86.2 473.056 85.6 474.923 84.4C476.856 83.2 478.39 81.5 479.523 79.3C480.656 77.0333 481.223 74.3333 481.223 71.2C481.223 66.6 479.99 63.0667 477.523 60.6C475.123 58.0667 472.156 56.8 468.623 56.8C465.09 56.8 462.09 58.0667 459.623 60.6C457.223 63.1333 456.023 66.6667 456.023 71.2C456.023 74.3333 456.59 77.0333 457.723 79.3C458.856 81.5 460.356 83.2 462.223 84.4C464.156 85.6 466.29 86.2 468.623 86.2Z" fill="white"/>
<path d="M109.678 23C111.497 23.0001 112.897 24.606 112.649 26.4082L104.691 84.3145C103.535 92.7296 96.3438 98.9998 87.8496 99H45.2129C38.7478 98.9998 33.0098 95.3612 30.1423 89.8702C29.392 88.4334 27.911 87.4619 26.29 87.4619C21.6754 87.4618 17.1419 86.2477 13.1455 83.9404C9.14893 81.633 5.82989 78.314 3.52246 74.3174C1.21503 70.3208 1.4669e-07 65.7867 0 61.1719C6.82783e-05 56.5572 1.21514 52.0238 3.52246 48.0273C5.82989 44.0308 9.14892 40.7117 13.1455 38.4043C16.5 36.4676 18.9226 32.8519 18.2247 29.0419L17.7666 26.541C17.4289 24.6983 18.8444 23.0001 20.7178 23H109.678ZM22.5883 52.8517C22.4541 52.1192 21.6772 51.6931 21.0322 52.0654C19.4338 52.9883 18.1065 54.3156 17.1836 55.9141C16.2607 57.5126 15.7745 59.3261 15.7744 61.1719C15.7744 63.0178 16.2606 64.832 17.1836 66.4307C18.1065 68.029 19.4338 69.3564 21.0322 70.2793C23.3795 71.6345 25.5805 69.1812 25.092 66.5152L22.5883 52.8517Z" fill="white"/>
<path d="M3.01766 143.632L3.88451 127.491L5.86762 127.55L5.76844 143.714L3.01766 143.632ZM6.74018 120.853L6.64167 124.148L3.34714 124.049L3.44565 120.755L6.74018 120.853ZM10.7764 137.301L11.465 114.272L14.0878 114.35L13.3992 137.38L10.7764 137.301ZM12.1198 137.341L12.1886 135.038L25.3028 135.431L25.2339 137.734L12.1198 137.341ZM37.6284 138.104C37.5539 137.739 37.5024 137.321 37.4737 136.851C37.4665 136.381 37.4736 135.784 37.4953 135.059L37.3354 135.054L37.5688 127.25C37.6058 126.013 37.345 125.098 36.7865 124.505C36.2499 123.891 35.3526 123.566 34.0945 123.528C32.8577 123.491 31.8585 123.717 31.0968 124.207C30.3572 124.676 29.931 125.367 29.8182 126.281L27.3553 126.208C27.5092 124.633 28.2072 123.416 29.4494 122.557C30.6916 121.698 32.2937 121.297 34.2555 121.356C36.2812 121.416 37.7702 121.941 38.7224 122.93C39.6746 123.919 40.122 125.373 40.0646 127.292L39.8303 135.129C39.8163 135.598 39.8336 136.089 39.8822 136.603C39.9315 137.095 40.0012 137.62 40.0913 138.178L37.6284 138.104ZM32.0213 138.257C30.3367 138.206 29.0054 137.761 28.0274 136.921C27.0714 136.06 26.6148 134.915 26.6575 133.486C26.7002 132.058 27.2238 130.963 28.2283 130.204C29.2328 129.444 30.6781 128.932 32.5641 128.669L38.2863 127.879L38.2231 129.99L32.8886 130.663C31.6888 130.819 30.773 131.112 30.1412 131.541C29.5094 131.971 29.1807 132.612 29.1552 133.465C29.1304 134.296 29.3888 134.934 29.9304 135.377C30.4934 135.821 31.3293 136.059 32.4382 136.092C33.8669 136.135 35.0386 135.85 35.9533 135.237C36.89 134.603 37.374 133.764 37.4052 132.719L37.7531 135.003C37.3794 136.08 36.6825 136.902 35.6625 137.469C34.6637 138.037 33.45 138.299 32.0213 138.257ZM59.1675 138.748C59.093 138.383 59.0415 137.966 59.0129 137.495C59.0056 137.025 59.0128 136.428 59.0344 135.703L58.8745 135.698L59.1079 127.894C59.1449 126.657 58.8841 125.742 58.3256 125.149C57.789 124.535 56.8917 124.21 55.6336 124.172C54.3968 124.135 53.3976 124.361 52.636 124.851C51.8963 125.32 51.4701 126.011 51.3574 126.926L48.8945 126.852C49.0483 125.277 49.7463 124.06 50.9885 123.201C52.2308 122.342 53.8328 121.941 55.7946 122C57.8203 122.061 59.3093 122.585 60.2615 123.574C61.2137 124.563 61.6611 126.017 61.6037 127.936L61.3694 135.773C61.3554 136.242 61.3727 136.733 61.4214 137.247C61.4707 137.739 61.5403 138.264 61.6304 138.822L59.1675 138.748ZM53.5604 138.901C51.8758 138.85 50.5446 138.405 49.5666 137.565C48.6105 136.704 48.1539 135.559 48.1966 134.13C48.2393 132.702 48.7629 131.607 49.7674 130.848C50.7719 130.088 52.2172 129.576 54.1032 129.313L59.8254 128.523L59.7623 130.634L54.4278 131.307C53.2279 131.463 52.3121 131.756 51.6803 132.186C51.0485 132.615 50.7199 133.256 50.6944 134.109C50.6695 134.941 50.9279 135.578 51.4696 136.021C52.0325 136.465 52.8685 136.703 53.9773 136.736C55.406 136.779 56.5777 136.494 57.4924 135.881C58.4291 135.247 58.9131 134.408 58.9443 133.363L59.2922 135.647C58.9185 136.724 58.2217 137.546 57.2016 138.113C56.2028 138.681 54.9891 138.943 53.5604 138.901ZM65.2513 138.93L65.9399 115.901L68.4988 115.977L67.8101 139.007L65.2513 138.93ZM78.4922 139.614C76.6797 139.56 75.3697 139.115 74.5623 138.28C73.7769 137.424 73.4075 136.218 73.454 134.661L73.9208 119.052L76.5083 118.169L76.0138 134.706C75.9864 135.623 76.2009 136.302 76.6573 136.742C77.1136 137.183 77.8749 137.419 78.9411 137.451C79.3676 137.463 79.7307 137.453 80.0305 137.419C80.3523 137.365 80.6104 137.298 80.8049 137.218L80.7398 139.393C80.524 139.472 80.2129 139.527 79.8065 139.558C79.4208 139.61 78.9827 139.629 78.4922 139.614ZM70.3834 124.933L70.4485 122.758L81.2276 123.081L81.1626 125.256L70.3834 124.933ZM89.4051 139.973C87.8485 139.926 86.484 139.522 85.3115 138.762C84.1397 137.98 83.2317 136.939 82.5876 135.639C81.9435 134.339 81.6463 132.858 81.6961 131.194C81.7458 129.531 82.12 128.08 82.8187 126.842C83.5393 125.583 84.5179 124.62 85.7544 123.952C86.9909 123.285 88.3981 122.975 89.976 123.022C91.49 123.067 92.7916 123.437 93.8806 124.131C94.991 124.826 95.8269 125.78 96.3883 126.992C96.9709 128.204 97.2381 129.621 97.1896 131.241C97.1832 131.455 97.1665 131.657 97.1394 131.848C97.1337 132.04 97.106 132.253 97.0563 132.486L83.5904 132.083L83.6544 129.94L95.5531 130.296L94.6861 131.455C94.7448 129.493 94.3526 127.976 93.5096 126.905C92.6885 125.814 91.489 125.244 89.911 125.197C88.2904 125.149 86.9621 125.675 85.9261 126.775C84.912 127.854 84.3766 129.343 84.3199 131.241C84.2618 133.181 84.7057 134.752 85.6516 135.955C86.6193 137.136 87.9349 137.752 89.5981 137.801C90.643 137.833 91.5666 137.636 92.369 137.212C93.172 136.766 93.7675 136.123 94.1555 135.281L96.5864 135.353C96.0087 136.83 95.0777 137.987 93.7935 138.823C92.5312 139.639 91.0684 140.022 89.4051 139.973ZM99.8246 139.964L100.312 123.651L102.711 123.723L102.587 127.881L102.747 127.886L102.383 140.041L99.8246 139.964ZM102.638 131.532L102.338 127.65C102.763 126.275 103.477 125.24 104.48 124.544C105.482 123.849 106.623 123.52 107.903 123.558C108.436 123.574 108.797 123.628 108.986 123.719L108.913 126.182C108.807 126.136 108.659 126.11 108.467 126.104C108.275 126.077 108.041 126.059 107.764 126.051C106.143 126.003 104.892 126.456 104.01 127.412C103.149 128.346 102.692 129.72 102.638 131.532ZM110.86 140.294L111.347 123.981L113.746 124.053L113.632 127.891L113.792 127.896L113.418 140.371L110.86 140.294ZM122.534 140.643L122.854 129.96C122.891 128.723 122.609 127.786 122.009 127.149C121.41 126.513 120.502 126.176 119.286 126.14C118.22 126.108 117.264 126.314 116.419 126.758C115.594 127.203 114.935 127.834 114.441 128.652C113.969 129.47 113.716 130.434 113.682 131.542L113.382 127.66C113.973 126.461 114.844 125.527 115.995 124.857C117.168 124.187 118.479 123.874 119.929 123.918C121.635 123.969 122.985 124.5 123.979 125.512C124.996 126.502 125.48 127.787 125.433 129.365L125.093 140.72L122.534 140.643ZM138.966 141.134C138.891 140.769 138.84 140.352 138.811 139.881C138.804 139.412 138.811 138.814 138.833 138.089L138.673 138.084L138.906 130.28C138.943 129.043 138.682 128.128 138.124 127.535C137.587 126.922 136.69 126.596 135.432 126.558C134.195 126.521 133.196 126.748 132.434 127.237C131.694 127.706 131.268 128.397 131.155 129.312L128.693 129.238C128.846 127.663 129.544 126.446 130.787 125.587C132.029 124.728 133.631 124.328 135.593 124.386C137.618 124.447 139.107 124.972 140.06 125.96C141.012 126.949 141.459 128.403 141.402 130.322L141.167 138.159C141.153 138.628 141.171 139.12 141.219 139.633C141.269 140.126 141.338 140.651 141.428 141.208L138.966 141.134ZM133.358 141.287C131.674 141.237 130.343 140.791 129.365 139.951C128.409 139.09 127.952 137.945 127.995 136.517C128.037 135.088 128.561 133.994 129.566 133.234C130.57 132.474 132.015 131.963 133.901 131.699L139.623 130.91L139.56 133.021L134.226 133.693C133.026 133.85 132.11 134.142 131.478 134.572C130.847 135.001 130.518 135.642 130.492 136.495C130.468 137.327 130.726 137.964 131.268 138.407C131.831 138.851 132.667 139.089 133.775 139.122C135.204 139.165 136.376 138.88 137.291 138.267C138.227 137.634 138.711 136.794 138.742 135.749L139.09 138.033C138.717 139.11 138.02 139.932 137 140.499C136.001 141.067 134.787 141.33 133.358 141.287ZM151.129 141.786C149.316 141.732 148.006 141.287 147.199 140.452C146.413 139.596 146.044 138.39 146.09 136.834L146.557 121.224L149.145 120.341L148.65 136.878C148.623 137.795 148.837 138.474 149.294 138.914C149.75 139.355 150.511 139.591 151.577 139.623C152.004 139.636 152.367 139.625 152.667 139.591C152.989 139.537 153.247 139.47 153.441 139.39L153.376 141.565C153.16 141.644 152.849 141.699 152.443 141.73C152.057 141.782 151.619 141.801 151.129 141.786ZM143.02 127.105L143.085 124.93L153.864 125.253L153.799 127.428L143.02 127.105ZM155.71 141.635L156.197 125.322L158.756 125.399L158.268 141.712L155.71 141.635ZM156.116 121.606L156.206 118.6L159.149 118.688L159.059 121.694L156.116 121.606ZM166.981 141.972L160.72 125.458L163.471 125.54L168.664 140.294L167.641 140.263L173.674 125.845L176.297 125.924L169.06 142.034L166.981 141.972ZM187.51 142.586C187.436 142.221 187.384 141.803 187.355 141.333C187.348 140.863 187.355 140.266 187.377 139.541L187.217 139.536L187.451 131.731C187.488 130.495 187.227 129.58 186.668 128.987C186.132 128.373 185.234 128.048 183.976 128.01C182.739 127.973 181.74 128.199 180.979 128.689C180.239 129.157 179.813 129.849 179.7 130.763L177.237 130.69C177.391 129.115 178.089 127.898 179.331 127.039C180.573 126.179 182.175 125.779 184.137 125.838C186.163 125.898 187.652 126.423 188.604 127.412C189.556 128.401 190.004 129.855 189.946 131.774L189.712 139.611C189.698 140.08 189.715 140.571 189.764 141.085C189.813 141.577 189.883 142.102 189.973 142.66L187.51 142.586ZM181.903 142.739C180.218 142.688 178.887 142.243 177.909 141.403C176.953 140.542 176.497 139.397 176.539 137.968C176.582 136.539 177.106 135.445 178.11 134.686C179.115 133.926 180.56 133.414 182.446 133.151L188.168 132.361L188.105 134.472L182.77 135.145C181.571 135.301 180.655 135.594 180.023 136.023C179.391 136.453 179.062 137.094 179.037 137.947C179.012 138.778 179.271 139.416 179.812 139.859C180.375 140.303 181.211 140.541 182.32 140.574C183.749 140.617 184.92 140.332 185.835 139.719C186.772 139.085 187.256 138.246 187.287 137.201L187.635 139.484C187.261 140.562 186.564 141.384 185.544 141.951C184.545 142.519 183.332 142.781 181.903 142.739ZM209.049 143.23C208.975 142.865 208.923 142.447 208.895 141.977C208.887 141.507 208.895 140.91 208.916 140.185L208.756 140.18L208.99 132.376C209.027 131.139 208.766 130.224 208.207 129.631C207.671 129.017 206.773 128.692 205.515 128.654C204.279 128.617 203.279 128.843 202.518 129.333C201.778 129.802 201.352 130.493 201.239 131.407L198.776 131.334C198.93 129.759 199.628 128.542 200.87 127.683C202.113 126.824 203.715 126.423 205.676 126.482C207.702 126.542 209.191 127.067 210.143 128.056C211.095 129.045 211.543 130.499 211.485 132.418L211.251 140.255C211.237 140.724 211.254 141.215 211.303 141.729C211.352 142.221 211.422 142.746 211.512 143.304L209.049 143.23ZM203.442 143.383C201.758 143.332 200.426 142.887 199.448 142.047C198.492 141.186 198.036 140.041 198.078 138.612C198.121 137.184 198.645 136.089 199.649 135.33C200.654 134.57 202.099 134.058 203.985 133.795L209.707 133.005L209.644 135.116L204.31 135.789C203.11 135.945 202.194 136.238 201.562 136.667C200.93 137.097 200.602 137.738 200.576 138.591C200.551 139.422 200.81 140.06 201.351 140.503C201.914 140.947 202.75 141.185 203.859 141.218C205.288 141.261 206.459 140.976 207.374 140.363C208.311 139.729 208.795 138.89 208.826 137.845L209.174 140.129C208.8 141.206 208.103 142.028 207.083 142.595C206.085 143.163 204.871 143.425 203.442 143.383ZM215.133 143.412L215.621 127.099L218.02 127.171L217.895 131.329L218.055 131.334L217.692 143.489L215.133 143.412ZM217.946 134.98L217.646 131.098C218.071 129.723 218.785 128.688 219.788 127.992C220.791 127.297 221.932 126.968 223.211 127.006C223.744 127.022 224.105 127.076 224.295 127.167L224.221 129.63C224.116 129.584 223.967 129.558 223.775 129.552C223.584 129.525 223.35 129.508 223.072 129.499C221.452 129.451 220.2 129.904 219.318 130.86C218.458 131.794 218 133.168 217.946 134.98ZM231.925 150.797C229.984 150.739 228.377 150.232 227.104 149.277C225.851 148.343 225.109 147.125 224.876 145.624L227.307 145.697C227.516 146.557 228.018 147.244 228.814 147.759C229.63 148.296 230.742 148.585 232.149 148.627C233.813 148.677 235.085 148.256 235.965 147.365C236.845 146.494 237.311 145.185 237.363 143.437L237.467 139.95L237.785 140.024C237.386 141.25 236.631 142.219 235.521 142.933C234.412 143.626 233.111 143.95 231.618 143.905C230.19 143.862 228.942 143.484 227.875 142.769C226.808 142.032 225.995 141.037 225.435 139.782C224.875 138.528 224.619 137.08 224.668 135.438C224.718 133.774 225.071 132.323 225.727 131.083C226.383 129.844 227.276 128.899 228.405 128.25C229.556 127.58 230.878 127.268 232.371 127.312C233.906 127.358 235.174 127.769 236.175 128.546C237.198 129.324 237.859 130.411 238.159 131.807L237.87 131.831L237.992 127.768L240.39 127.84L239.922 143.513C239.852 145.837 239.104 147.651 237.678 148.952C236.252 150.254 234.334 150.869 231.925 150.797ZM232.324 141.717C233.923 141.765 235.209 141.249 236.18 140.168C237.152 139.087 237.666 137.598 237.722 135.7C237.778 133.845 237.352 132.37 236.446 131.276C235.54 130.16 234.288 129.578 232.689 129.531C231.068 129.482 229.772 129.988 228.801 131.047C227.852 132.107 227.349 133.586 227.292 135.484C227.237 137.339 227.661 138.835 228.567 139.972C229.472 141.088 230.725 141.669 232.324 141.717ZM250.751 144.797C249.194 144.751 247.829 144.347 246.657 143.586C245.485 142.804 244.577 141.763 243.933 140.464C243.289 139.164 242.992 137.682 243.041 136.019C243.091 134.356 243.465 132.905 244.164 131.667C244.885 130.408 245.863 129.444 247.1 128.777C248.336 128.11 249.743 127.8 251.321 127.847C252.835 127.892 254.137 128.262 255.226 128.956C256.336 129.651 257.172 130.604 257.734 131.816C258.316 133.029 258.583 134.446 258.535 136.066C258.529 136.279 258.512 136.482 258.485 136.673C258.479 136.865 258.451 137.077 258.402 137.311L244.936 136.908L245 134.765L256.898 135.121L256.031 136.279C256.09 134.318 255.698 132.801 254.855 131.73C254.034 130.638 252.834 130.069 251.256 130.022C249.636 129.973 248.307 130.499 247.271 131.599C246.257 132.679 245.722 134.168 245.665 136.065C245.607 138.006 246.051 139.577 246.997 140.779C247.965 141.961 249.28 142.576 250.944 142.626C251.988 142.657 252.912 142.461 253.714 142.037C254.517 141.591 255.113 140.947 255.501 140.105L257.932 140.178C257.354 141.655 256.423 142.811 255.139 143.648C253.877 144.464 252.414 144.847 250.751 144.797ZM261.17 144.789L261.658 128.476L264.057 128.548L263.942 132.386L264.102 132.391L263.729 144.865L261.17 144.789ZM272.845 145.138L273.164 134.455C273.201 133.218 272.92 132.281 272.32 131.644C271.72 131.007 270.812 130.671 269.597 130.634C268.531 130.602 267.575 130.809 266.729 131.253C265.905 131.698 265.245 132.329 264.752 133.147C264.279 133.965 264.026 134.928 263.993 136.037L263.693 132.155C264.283 130.956 265.154 130.021 266.306 129.351C267.478 128.682 268.789 128.369 270.239 128.413C271.945 128.464 273.295 128.995 274.29 130.006C275.306 130.997 275.79 132.282 275.743 133.859L275.404 145.214L272.845 145.138ZM285.81 145.846C284.317 145.801 282.995 145.399 281.844 144.639C280.715 143.858 279.828 142.818 279.184 141.518C278.562 140.197 278.275 138.716 278.324 137.074C278.374 135.432 278.747 133.992 279.446 132.754C280.166 131.516 281.113 130.552 282.286 129.861C283.48 129.171 284.813 128.848 286.285 128.892C287.5 128.929 288.58 129.196 289.526 129.694C290.493 130.192 291.272 130.888 291.865 131.78C292.479 132.652 292.854 133.667 292.99 134.823L290.623 134.753C290.441 133.701 289.976 132.834 289.228 132.15C288.481 131.466 287.499 131.106 286.283 131.069C285.239 131.038 284.325 131.267 283.542 131.756C282.759 132.244 282.14 132.952 281.685 133.877C281.231 134.803 280.985 135.894 280.947 137.152C280.91 138.411 281.09 139.526 281.488 140.498C281.885 141.47 282.46 142.235 283.212 142.791C283.985 143.347 284.894 143.641 285.939 143.673C287.111 143.708 288.102 143.417 288.91 142.801C289.719 142.164 290.245 141.326 290.49 140.287L292.857 140.358C292.631 141.482 292.175 142.472 291.487 143.326C290.822 144.16 290.003 144.797 289.029 145.238C288.056 145.678 286.982 145.881 285.81 145.846ZM295.453 145.814L296.142 122.784L298.701 122.861L298.012 145.89L295.453 145.814ZM307.128 146.163L307.448 135.48C307.485 134.243 307.203 133.306 306.603 132.669C306.003 132.032 305.096 131.696 303.88 131.659C302.814 131.628 301.858 131.834 301.012 132.278C300.188 132.723 299.529 133.354 299.035 134.172C298.562 134.99 298.309 135.954 298.276 137.062L297.976 133.18C298.567 131.981 299.438 131.046 300.589 130.377C301.762 129.707 303.073 129.394 304.523 129.438C306.229 129.489 307.579 130.02 308.573 131.031C309.589 132.022 310.074 133.307 310.027 134.885L309.687 146.24L307.128 146.163ZM313.641 146.358L314.129 130.045L316.688 130.122L316.2 146.434L313.641 146.358ZM314.048 126.329L314.138 123.322L317.081 123.41L316.991 126.417L314.048 126.329ZM320.366 146.559L320.854 130.246L323.253 130.318L323.138 134.156L323.298 134.161L322.925 146.635L320.366 146.559ZM332.041 146.908L332.36 136.225C332.397 134.988 332.116 134.051 331.516 133.414C330.916 132.777 330.008 132.441 328.793 132.404C327.727 132.373 326.771 132.579 325.925 133.023C325.101 133.468 324.442 134.099 323.948 134.917C323.475 135.735 323.222 136.699 323.189 137.807L322.889 133.925C323.479 132.726 324.35 131.791 325.502 131.122C326.674 130.452 327.985 130.139 329.435 130.183C331.141 130.234 332.491 130.765 333.486 131.776C334.502 132.767 334.986 134.052 334.939 135.63L334.6 146.985L332.041 146.908ZM348.472 147.399C348.397 147.034 348.346 146.617 348.317 146.146C348.31 145.676 348.317 145.079 348.339 144.354L348.179 144.349L348.412 136.545C348.449 135.308 348.189 134.393 347.63 133.8C347.093 133.186 346.196 132.861 344.938 132.823C343.701 132.786 342.702 133.012 341.94 133.502C341.201 133.971 340.775 134.662 340.662 135.577L338.199 135.503C338.353 133.928 339.051 132.711 340.293 131.852C341.535 130.993 343.137 130.592 345.099 130.651C347.125 130.712 348.614 131.236 349.566 132.225C350.518 133.214 350.966 134.668 350.908 136.587L350.674 144.424C350.66 144.893 350.677 145.384 350.726 145.898C350.775 146.39 350.845 146.915 350.935 147.473L348.472 147.399ZM342.865 147.552C341.18 147.501 339.849 147.056 338.871 146.216C337.915 145.355 337.458 144.21 337.501 142.781C337.544 141.353 338.067 140.259 339.072 139.499C340.076 138.739 341.522 138.228 343.408 137.964L349.13 137.174L349.067 139.286L343.732 139.958C342.532 140.115 341.617 140.407 340.985 140.837C340.353 141.266 340.024 141.907 339.999 142.76C339.974 143.592 340.232 144.229 340.774 144.672C341.337 145.116 342.173 145.354 343.282 145.387C344.71 145.43 345.882 145.145 346.797 144.532C347.734 143.898 348.218 143.059 348.249 142.014L348.597 144.298C348.223 145.375 347.526 146.197 346.506 146.764C345.507 147.332 344.294 147.595 342.865 147.552ZM371.866 148.099L371.98 144.293L372.297 144.398C371.855 145.623 371.079 146.581 369.97 147.274C368.882 147.967 367.592 148.291 366.099 148.247C364.628 148.203 363.348 147.812 362.26 147.075C361.194 146.339 360.37 145.333 359.79 144.056C359.23 142.78 358.976 141.3 359.026 139.615C359.077 137.909 359.431 136.426 360.088 135.165C360.744 133.904 361.637 132.938 362.767 132.268C363.897 131.597 365.208 131.284 366.701 131.329C368.236 131.375 369.515 131.787 370.538 132.564C371.56 133.342 372.243 134.419 372.586 135.795L372.073 135.844L372.395 125.064L374.954 125.141L374.265 148.171L371.866 148.099ZM366.646 146.022C368.288 146.071 369.584 145.555 370.534 144.473C371.506 143.371 372.021 141.85 372.079 139.91C372.136 138.012 371.712 136.494 370.807 135.358C369.901 134.221 368.639 133.628 367.018 133.58C365.397 133.531 364.112 134.048 363.162 135.129C362.212 136.21 361.708 137.732 361.649 139.694C361.591 141.613 362.005 143.141 362.888 144.277C363.773 145.392 365.025 145.973 366.646 146.022ZM385.113 148.815C383.556 148.769 382.192 148.365 381.019 147.604C379.848 146.822 378.94 145.781 378.295 144.481C377.651 143.182 377.354 141.7 377.404 140.037C377.454 138.374 377.828 136.923 378.526 135.684C379.247 134.425 380.226 133.462 381.462 132.795C382.699 132.128 384.106 131.817 385.684 131.865C387.198 131.91 388.499 132.28 389.588 132.974C390.699 133.669 391.535 134.622 392.096 135.834C392.679 137.047 392.946 138.463 392.897 140.084C392.891 140.297 392.874 140.499 392.847 140.691C392.842 140.883 392.814 141.095 392.764 141.329L379.298 140.926L379.362 138.783L391.261 139.139L390.394 140.297C390.453 138.335 390.06 136.819 389.217 135.748C388.396 134.656 387.197 134.087 385.619 134.04C383.998 133.991 382.67 134.517 381.634 135.617C380.62 136.697 380.084 138.185 380.028 140.083C379.97 142.024 380.414 143.595 381.359 144.797C382.327 145.979 383.643 146.594 385.306 146.644C386.351 146.675 387.274 146.479 388.077 146.055C388.88 145.609 389.475 144.965 389.863 144.123L392.294 144.196C391.717 145.672 390.786 146.829 389.501 147.666C388.239 148.482 386.776 148.865 385.113 148.815ZM401.168 148.975L401.857 125.945L405.887 126.066L413.539 148.513L412.324 148.476L421.24 126.525L425.334 126.647L424.646 149.677L422.055 149.6L422.702 127.945L423.054 127.956L414.378 149.37L411.244 149.276L403.857 127.574L404.209 127.584L403.567 149.047L401.168 148.975ZM439.015 150.107C438.941 149.742 438.889 149.324 438.861 148.854C438.853 148.384 438.86 147.787 438.882 147.062L438.722 147.057L438.956 139.252C438.993 138.015 438.732 137.101 438.173 136.508C437.637 135.894 436.739 135.568 435.481 135.531C434.244 135.494 433.245 135.72 432.484 136.209C431.744 136.678 431.318 137.37 431.205 138.284L428.742 138.211C428.896 136.636 429.594 135.419 430.836 134.559C432.078 133.7 433.68 133.3 435.642 133.359C437.668 133.419 439.157 133.944 440.109 134.933C441.061 135.922 441.509 137.376 441.451 139.295L441.217 147.131C441.203 147.6 441.22 148.092 441.269 148.606C441.318 149.098 441.388 149.623 441.478 150.181L439.015 150.107ZM433.408 150.259C431.724 150.209 430.392 149.764 429.414 148.923C428.458 148.062 428.002 146.918 428.044 145.489C428.087 144.06 428.611 142.966 429.615 142.206C430.62 141.447 432.065 140.935 433.951 140.671L439.673 139.882L439.61 141.993L434.275 142.666C433.076 142.822 432.16 143.115 431.528 143.544C430.896 143.973 430.568 144.615 430.542 145.468C430.517 146.299 430.776 146.937 431.317 147.38C431.88 147.823 432.716 148.062 433.825 148.095C435.254 148.138 436.425 147.852 437.34 147.24C438.277 146.606 438.761 145.767 438.792 144.722L439.14 147.005C438.766 148.083 438.069 148.905 437.049 149.472C436.051 150.04 434.837 150.302 433.408 150.259ZM451.178 150.759C449.366 150.705 448.056 150.26 447.248 149.425C446.463 148.569 446.093 147.363 446.14 145.806L446.607 130.197L449.194 129.314L448.7 145.85C448.672 146.767 448.887 147.446 449.343 147.887C449.8 148.327 450.561 148.563 451.627 148.595C452.053 148.608 452.417 148.597 452.716 148.564C453.038 148.509 453.296 148.442 453.491 148.363L453.426 150.538C453.21 150.617 452.899 150.671 452.492 150.702C452.107 150.754 451.669 150.773 451.178 150.759ZM443.069 136.078L443.134 133.903L453.914 134.225L453.849 136.4L443.069 136.078ZM462.091 151.117C460.534 151.071 459.17 150.667 457.997 149.906C456.826 149.124 455.918 148.083 455.274 146.783C454.629 145.484 454.332 144.002 454.382 142.339C454.432 140.675 454.806 139.225 455.505 137.986C456.225 136.727 457.204 135.764 458.44 135.097C459.677 134.429 461.084 134.119 462.662 134.167C464.176 134.212 465.477 134.582 466.567 135.276C467.677 135.971 468.513 136.924 469.074 138.136C469.657 139.349 469.924 140.765 469.876 142.386C469.869 142.599 469.852 142.801 469.825 142.993C469.82 143.185 469.792 143.397 469.742 143.63L456.276 143.228L456.34 141.085L468.239 141.44L467.372 142.599C467.431 140.637 467.039 139.121 466.195 138.05C465.374 136.958 464.175 136.389 462.597 136.342C460.976 136.293 459.648 136.819 458.612 137.919C457.598 138.999 457.063 140.487 457.006 142.385C456.948 144.326 457.392 145.897 458.337 147.099C459.305 148.281 460.621 148.896 462.284 148.946C463.329 148.977 464.253 148.781 465.055 148.356C465.858 147.911 466.453 147.267 466.841 146.425L469.272 146.498C468.695 147.974 467.764 149.131 466.479 149.968C465.217 150.784 463.754 151.167 462.091 151.117ZM478.034 151.594C476.03 151.534 474.444 151.028 473.278 150.075C472.112 149.101 471.469 147.759 471.349 146.048L473.812 146.121C473.93 147.17 474.365 147.984 475.116 148.561C475.867 149.139 476.882 149.446 478.162 149.485C479.292 149.518 480.183 149.332 480.835 148.924C481.488 148.517 481.826 147.919 481.85 147.13C481.866 146.575 481.699 146.09 481.349 145.674C480.999 145.237 480.285 144.863 479.205 144.554L476.603 143.804C475.121 143.375 474.02 142.755 473.297 141.944C472.575 141.111 472.23 140.141 472.263 139.032C472.305 137.624 472.861 136.531 473.93 135.752C475 134.952 476.43 134.578 478.222 134.632C479.991 134.685 481.418 135.154 482.501 136.04C483.585 136.926 484.178 138.129 484.282 139.647L481.819 139.574C481.696 138.695 481.311 138.011 480.664 137.522C480.017 137.033 479.15 136.773 478.062 136.74C477.018 136.709 476.201 136.887 475.613 137.275C475.026 137.642 474.722 138.187 474.7 138.912C474.683 139.467 474.872 139.953 475.265 140.37C475.679 140.788 476.373 141.15 477.345 141.457L479.883 142.237C481.385 142.687 482.507 143.34 483.25 144.194C483.993 145.049 484.347 146.063 484.312 147.235C484.269 148.664 483.692 149.767 482.58 150.545C481.469 151.302 479.954 151.651 478.034 151.594ZM486.919 151.539L487.407 135.227L489.966 135.303L489.478 151.616L486.919 151.539ZM487.326 131.511L487.416 128.504L490.358 128.592L490.269 131.599L487.326 131.511ZM500.098 152.222C498.285 152.167 496.975 151.723 496.168 150.887C495.382 150.032 495.013 148.825 495.059 147.269L495.526 131.66L498.114 130.777L497.619 147.313C497.592 148.23 497.806 148.909 498.263 149.349C498.719 149.79 499.48 150.026 500.546 150.058C500.973 150.071 501.336 150.06 501.636 150.027C501.958 149.972 502.216 149.905 502.41 149.826L502.345 152.001C502.129 152.08 501.818 152.134 501.412 152.165C501.026 152.217 500.588 152.236 500.098 152.222ZM491.989 137.541L492.054 135.366L502.833 135.688L502.768 137.863L491.989 137.541ZM511.075 152.582C509.476 152.534 508.08 152.119 506.887 151.336C505.693 150.553 504.775 149.512 504.131 148.212C503.509 146.892 503.222 145.421 503.27 143.801C503.319 142.159 503.704 140.719 504.424 139.481C505.144 138.243 506.112 137.28 507.327 136.591C508.565 135.902 509.983 135.582 511.582 135.629C513.203 135.678 514.599 136.082 515.772 136.843C516.965 137.605 517.874 138.624 518.497 139.902C519.142 141.181 519.44 142.641 519.391 144.283C519.342 145.903 518.958 147.354 518.236 148.634C517.537 149.894 516.569 150.879 515.331 151.589C514.114 152.299 512.696 152.63 511.075 152.582ZM511.14 150.407C512.249 150.44 513.217 150.202 514.043 149.693C514.87 149.163 515.521 148.425 515.998 147.479C516.474 146.533 516.731 145.43 516.769 144.172C516.825 142.296 516.369 140.777 515.401 139.617C514.454 138.458 513.159 137.854 511.517 137.804C509.896 137.756 508.568 138.282 507.532 139.382C506.496 140.482 505.95 141.971 505.894 143.847C505.856 145.105 506.047 146.221 506.466 147.194C506.885 148.167 507.492 148.942 508.285 149.521C509.101 150.079 510.053 150.374 511.14 150.407ZM522.399 145.877L522.522 128.913L525.273 128.996L524.382 145.937L522.399 145.877ZM521.559 152.575L521.657 149.281L524.952 149.379L524.853 152.674L521.559 152.575Z" fill="white"/>
</svg>
