<svg width="500" height="122" viewBox="0 0 500 122" fill="none" xmlns="http://www.w3.org/2000/svg">
<path d="M161.218 98C156.018 98 151.218 97.1 146.818 95.3C142.418 93.4333 138.585 90.8333 135.318 87.5C132.118 84.1667 129.618 80.2333 127.818 75.7C126.018 71.1 125.118 66.1 125.118 60.7C125.118 55.3 125.985 50.3667 127.718 45.9C129.518 41.4333 132.018 37.5667 135.218 34.3C138.485 30.9667 142.318 28.4333 146.718 26.7C151.118 24.9 155.951 24 161.218 24C167.151 24 172.485 25.1667 177.218 27.5C182.018 29.7667 185.918 33 188.918 37.2C191.985 41.3333 193.852 46.2 194.518 51.8H179.518C178.652 46.6667 176.552 42.8 173.218 40.2C169.885 37.5333 165.918 36.2 161.318 36.2C157.252 36.2 153.651 37.1667 150.518 39.1C147.451 41.0333 145.051 43.8333 143.318 47.5C141.585 51.1 140.718 55.4667 140.718 60.6C140.718 65.8 141.585 70.3 143.318 74.1C145.118 77.8333 147.585 80.7333 150.718 82.8C153.851 84.8 157.451 85.8 161.518 85.8C165.851 85.8 169.685 84.5 173.018 81.9C176.351 79.3 178.518 75.4333 179.518 70.3H194.718C193.852 75.9 191.885 80.8 188.818 85C185.752 89.1333 181.852 92.3333 177.118 94.6C172.385 96.8667 167.085 98 161.218 98ZM230.167 97C229.767 95.5333 229.467 93.9667 229.267 92.3C229.134 90.6333 229.067 88.7 229.067 86.5H228.667V62.4C228.667 60.3333 227.967 58.7333 226.567 57.6C225.234 56.4 223.234 55.8 220.567 55.8C218.034 55.8 216.001 56.2333 214.467 57.1C213.001 57.9667 212.034 59.2333 211.567 60.9H197.267C197.934 56.3 200.301 52.5 204.367 49.5C208.434 46.5 214.001 45 221.067 45C228.401 45 234.001 46.6333 237.867 49.9C241.734 53.1667 243.667 57.8667 243.667 64V86.5C243.667 88.1667 243.767 89.8667 243.967 91.6C244.234 93.2667 244.634 95.0667 245.167 97H230.167ZM212.367 98C207.301 98 203.267 96.7333 200.267 94.2C197.267 91.6 195.767 88.1667 195.767 83.9C195.767 79.1667 197.534 75.3667 201.067 72.5C204.667 69.5667 209.667 67.6667 216.067 66.8L230.967 64.7V73.4L218.567 75.3C215.901 75.7 213.934 76.4333 212.667 77.5C211.401 78.5667 210.767 80.0333 210.767 81.9C210.767 83.5667 211.367 84.8333 212.567 85.7C213.767 86.5667 215.367 87 217.367 87C220.501 87 223.167 86.1667 225.367 84.5C227.567 82.7667 228.667 80.7667 228.667 78.5L230.067 86.5C228.601 90.3 226.367 93.1667 223.367 95.1C220.367 97.0333 216.701 98 212.367 98ZM253.069 97V42.6C253.069 36.4667 254.736 31.8333 258.069 28.7C261.402 25.5667 266.336 24 272.869 24C274.269 24 275.469 24.0667 276.469 24.2C277.536 24.3333 278.569 24.5667 279.569 24.9V36.4C279.102 36.2 278.536 36.0667 277.869 36C277.202 35.8667 276.402 35.8 275.469 35.8C272.936 35.8 271.069 36.4 269.869 37.6C268.669 38.8 268.069 40.5333 268.069 42.8V97H253.069ZM244.569 57.4V46H278.469V57.4H244.569ZM305.618 98C299.951 98 295.018 96.9 290.818 94.7C286.618 92.4333 283.351 89.3 281.018 85.3C278.751 81.3 277.618 76.7 277.618 71.5C277.618 66.2333 278.751 61.6333 281.018 57.7C283.351 53.7 286.585 50.6 290.718 48.4C294.851 46.1333 299.651 45 305.118 45C310.385 45 314.951 46.0667 318.818 48.2C322.685 50.3333 325.685 53.3 327.818 57.1C329.951 60.9 331.018 65.3667 331.018 70.5C331.018 71.5667 330.985 72.5667 330.918 73.5C330.852 74.3667 330.752 75.2 330.618 76H286.418V66.1H318.518L315.918 67.9C315.918 63.7667 314.918 60.7333 312.918 58.8C310.985 56.8 308.318 55.8 304.918 55.8C300.985 55.8 297.918 57.1333 295.718 59.8C293.585 62.4667 292.518 66.4667 292.518 71.8C292.518 77 293.585 80.8667 295.718 83.4C297.918 85.9333 301.185 87.2 305.518 87.2C307.918 87.2 309.985 86.8 311.718 86C313.452 85.2 314.751 83.9 315.618 82.1H329.718C328.051 87.0333 325.185 90.9333 321.118 93.8C317.118 96.6 311.951 98 305.618 98ZM357.128 98C349.662 98 343.728 96.5 339.328 93.5C334.928 90.5 332.528 86.3667 332.128 81.1H345.528C345.862 83.3667 346.995 85.1 348.928 86.3C350.928 87.4333 353.662 88 357.128 88C360.262 88 362.528 87.5667 363.928 86.7C365.395 85.7667 366.128 84.4667 366.128 82.8C366.128 81.5333 365.695 80.5667 364.828 79.9C364.028 79.1667 362.528 78.5667 360.328 78.1L352.128 76.4C346.062 75.1333 341.595 73.2333 338.728 70.7C335.862 68.1 334.428 64.7667 334.428 60.7C334.428 55.7667 336.328 51.9333 340.128 49.2C343.928 46.4 349.228 45 356.028 45C362.762 45 368.128 46.3667 372.128 49.1C376.128 51.7667 378.328 55.5 378.728 60.3H365.328C365.062 58.5667 364.128 57.2667 362.528 56.4C360.928 55.4667 358.662 55 355.728 55C353.062 55 351.062 55.4 349.728 56.2C348.462 56.9333 347.828 58 347.828 59.4C347.828 60.6 348.362 61.5667 349.428 62.3C350.495 62.9667 352.262 63.5667 354.728 64.1L363.928 66C369.062 67.0667 372.928 69.0667 375.528 72C378.195 74.8667 379.528 78.2667 379.528 82.2C379.528 87.2 377.562 91.1 373.628 93.9C369.762 96.6333 364.262 98 357.128 98ZM383.919 97V46H398.919V97H383.919ZM383.419 39.2V23H399.419V39.2H383.419ZM431.291 98.1C424.757 98.1 419.891 96.5333 416.691 93.4C413.557 90.2 411.991 85.3667 411.991 78.9V34.6L426.991 29V79.4C426.991 81.6667 427.624 83.3667 428.891 84.5C430.157 85.6333 432.124 86.2 434.791 86.2C435.791 86.2 436.724 86.1 437.591 85.9C438.457 85.7 439.324 85.4667 440.191 85.2V96.6C439.324 97.0667 438.091 97.4333 436.491 97.7C434.957 97.9667 433.224 98.1 431.291 98.1ZM402.491 57.4V46H440.191V57.4H402.491ZM468.623 98C463.023 98 458.09 96.9 453.823 94.7C449.623 92.4333 446.323 89.3 443.923 85.3C441.59 81.2333 440.423 76.5667 440.423 71.3C440.423 66.0333 441.59 61.4333 443.923 57.5C446.323 53.5667 449.623 50.5 453.823 48.3C458.09 46.1 463.023 45 468.623 45C474.29 45 479.223 46.1 483.423 48.3C487.69 50.5 490.99 53.5667 493.323 57.5C495.656 61.4333 496.823 66.0333 496.823 71.3C496.823 76.5667 495.623 81.2333 493.223 85.3C490.89 89.3 487.59 92.4333 483.323 94.7C479.123 96.9 474.223 98 468.623 98ZM468.623 86.2C470.956 86.2 473.056 85.6 474.923 84.4C476.856 83.2 478.39 81.5 479.523 79.3C480.656 77.0333 481.223 74.3333 481.223 71.2C481.223 66.6 479.99 63.0667 477.523 60.6C475.123 58.0667 472.156 56.8 468.623 56.8C465.09 56.8 462.09 58.0667 459.623 60.6C457.223 63.1333 456.023 66.6667 456.023 71.2C456.023 74.3333 456.59 77.0333 457.723 79.3C458.856 81.5 460.356 83.2 462.223 84.4C464.156 85.6 466.29 86.2 468.623 86.2Z" fill="white"/>
<path d="M109.678 23C111.497 23.0001 112.897 24.606 112.649 26.4082L104.691 84.3145C103.535 92.7296 96.3438 98.9998 87.8496 99H45.2129C38.7478 98.9998 33.0098 95.3612 30.1423 89.8702C29.392 88.4334 27.911 87.4619 26.29 87.4619C21.6754 87.4618 17.1419 86.2477 13.1455 83.9404C9.14893 81.633 5.82989 78.314 3.52246 74.3174C1.21503 70.3208 1.4669e-07 65.7867 0 61.1719C6.82783e-05 56.5572 1.21514 52.0238 3.52246 48.0273C5.82989 44.0308 9.14892 40.7117 13.1455 38.4043C16.5 36.4676 18.9226 32.8519 18.2247 29.0419L17.7666 26.541C17.4289 24.6983 18.8444 23.0001 20.7178 23H109.678ZM22.5883 52.8517C22.4541 52.1192 21.6772 51.6931 21.0322 52.0654C19.4338 52.9883 18.1065 54.3156 17.1836 55.9141C16.2607 57.5126 15.7745 59.3261 15.7744 61.1719C15.7744 63.0178 16.2606 64.832 17.1836 66.4307C18.1065 68.029 19.4338 69.3564 21.0322 70.2793C23.3795 71.6345 25.5805 69.1812 25.092 66.5152L22.5883 52.8517Z" fill="white"/>
</svg>
